M48
; DRILL file {KiCad (5.1.6)-1} date 09/20/20 01:31:58
; FORMAT={-:-/ absolute / inch / decimal}
; #@! TF.CreationDate,2020-09-20T01:31:58-05:00
; #@! TF.GenerationSoftware,Kicad,Pcbnew,(5.1.6)-1
FMAT,2
INCH
T1C0.0236
T2C0.0276
T3C0.0295
T4C0.0315
T5C0.0354
T6C0.0394
T7C0.0433
T8C0.0512
T9C0.1260
%
G90
G05
T1
X4.15Y-3.8
X4.2287Y-3.8
X5.0Y-4.2
X5.0Y-4.2787
X4.7213Y-4.6
X4.8Y-4.6
X4.6213Y-3.8
X4.7Y-3.8
X4.3713Y-3.8
X4.45Y-3.8
T2
X3.95Y-2.5
X3.95Y-2.7
X2.65Y-2.5
X2.65Y-2.7
X5.75Y-5.0
X5.95Y-5.0
X4.6Y-2.5
X4.6Y-2.7
X5.75Y-4.4
X5.95Y-4.4
X5.7Y-3.8
X5.9Y-3.8
X5.75Y-5.3
X5.95Y-5.3
X5.75Y-4.1
X5.95Y-4.1
X5.75Y-3.2
X5.95Y-3.2
X5.05Y-2.5
X5.05Y-2.7
X3.25Y-2.4
X3.25Y-2.6
X3.1Y-2.5
X3.1Y-2.7
X5.25Y-2.4
X5.25Y-2.6
X5.75Y-4.7
X5.95Y-4.7
X3.7Y-2.4
X3.7Y-2.6
X5.75Y-3.5
X5.95Y-3.5
X4.4Y-2.4
X4.4Y-2.6
X5.65Y-2.4
X5.65Y-2.6
X2.85Y-2.4
X2.85Y-2.6
X4.1Y-2.4
X4.1Y-2.6
X4.25Y-2.5
X4.25Y-2.7
X4.8Y-2.4
X4.8Y-2.6
X3.5Y-2.5
X3.5Y-2.7
X5.5Y-2.5
X5.5Y-2.7
X4.25Y-4.6
X4.45Y-4.6
T3
X6.8Y-4.25
X6.85Y-4.3
X6.9Y-4.25
T4
X7.3Y-3.4626
X7.3Y-3.5413
X7.3Y-3.6201
X7.3Y-3.6988
X7.3Y-3.7776
X7.3Y-3.8563
X7.3Y-3.935
X7.3Y-4.0138
X7.3Y-4.0925
X7.3Y-4.1713
X7.3Y-4.25
X6.35Y-3.9
X6.35Y-3.9787
X6.35Y-4.0575
X6.35Y-4.1362
X6.35Y-4.215
X6.35Y-4.2937
X6.35Y-4.3724
X6.35Y-4.4512
X4.4Y-4.9787
X4.4Y-5.0575
X4.4Y-5.1362
X7.7Y-3.4764
X7.7Y-3.5551
X7.7Y-3.6339
X7.7Y-3.7126
X7.7Y-3.7913
X7.7Y-3.8701
X7.7Y-3.9488
X7.7Y-4.0276
X7.7Y-4.1063
X7.7Y-4.185
X7.7Y-4.2638
X7.7Y-4.3425
X7.7Y-4.4213
X7.7Y-4.5
X4.1Y-4.05
X4.1Y-4.35
X4.2Y-4.05
X4.2Y-4.35
X4.3Y-4.05
X4.3Y-4.35
X4.4Y-4.05
X4.4Y-4.35
X4.5Y-4.05
X4.5Y-4.35
X4.6Y-4.05
X4.6Y-4.35
X4.7Y-4.05
X4.7Y-4.35
X4.8Y-4.05
X4.8Y-4.35
X4.3213Y-4.75
X4.4Y-4.75
X7.05Y-3.0
X7.1287Y-3.0
X7.2075Y-3.0
X7.2862Y-3.0
X7.365Y-3.0
X7.4437Y-3.0
X7.5224Y-3.0
X7.6012Y-3.0
X6.85Y-4.8425
X6.85Y-4.9213
X6.85Y-5.0
X3.85Y-3.35
X3.9287Y-3.35
X4.0075Y-3.35
X4.0862Y-3.35
X4.165Y-3.35
X4.2437Y-3.35
X4.3224Y-3.35
X4.4012Y-3.35
X7.0488Y-2.15
X7.1276Y-2.15
X7.2063Y-2.15
X7.285Y-2.15
X7.3638Y-2.15
X7.4425Y-2.15
X7.5213Y-2.15
X7.6Y-2.15
X4.85Y-4.9925
X4.85Y-5.0713
X4.85Y-5.15
T5
X5.45Y-5.3
X5.55Y-5.3
X5.45Y-5.0
X5.55Y-5.0
X5.45Y-4.1
X5.55Y-4.1
X5.45Y-4.4
X5.55Y-4.4
X5.45Y-3.2
X5.55Y-3.2
X4.0Y-4.6
X4.1Y-4.6
X5.45Y-3.8
X5.55Y-3.8
X5.45Y-3.5
X5.55Y-3.5
X5.45Y-4.7
X5.55Y-4.7
T6
X2.7382Y-4.0545
X2.7382Y-4.1636
X2.7382Y-4.2726
X2.7382Y-4.3817
X2.85Y-4.0
X2.85Y-4.1091
X2.85Y-4.2181
X2.85Y-4.3272
X2.85Y-4.4362
T7
X3.95Y-1.8941
X3.95Y-2.15
X4.1272Y-1.8941
X4.1272Y-2.15
X3.1Y-1.8941
X3.1Y-2.15
X3.2772Y-1.8941
X3.2772Y-2.15
X4.35Y-1.8941
X4.35Y-2.15
X4.5272Y-1.8941
X4.5272Y-2.15
X3.55Y-1.8941
X3.55Y-2.15
X3.7272Y-1.8941
X3.7272Y-2.15
X4.75Y-1.8941
X4.75Y-2.15
X4.9272Y-1.8941
X4.9272Y-2.15
X5.65Y-1.8941
X5.65Y-2.15
X5.8272Y-1.8941
X5.8272Y-2.15
X2.65Y-1.8941
X2.65Y-2.15
X2.8272Y-1.8941
X2.8272Y-2.15
X5.2Y-1.8941
X5.2Y-2.15
X5.3772Y-1.8941
X5.3772Y-2.15
T8
X7.5063Y-4.8984
X7.9Y-4.8
X7.9Y-4.9969
X6.65Y-3.45
X6.7484Y-3.8437
X6.8469Y-3.45
X6.8063Y-5.3484
X7.2Y-5.25
X7.2Y-5.4469
T9
X2.8382Y-3.726
X2.8382Y-4.7102
T0
M30
